<?xml version="1.0" encoding="UTF-8"?>
<svg width="435px" height="150px" viewBox="0 0 435 150" version="1.1" xmlns="http://www.w3.org/2000/svg" xmlns:xlink="http://www.w3.org/1999/xlink">
    <title>logo+文字-AI</title>
    <defs>
        <polygon id="path-1" points="0 0 28.1879195 0 28.1879195 36.2416107 0 36.2416107"></polygon>
        <polygon id="path-3" points="0 0 39.261745 0 39.261745 37.2483221 0 37.2483221"></polygon>
    </defs>
    <g id="Page-1" stroke="none" stroke-width="1" fill="none" fill-rule="evenodd">
        <g id="logo+文字-AI">
            <g id="Logo">
                <g id="Fill-1-Clipped" transform="translate(50.342282, 113.758389)">
                    <mask id="mask-2" fill="white">
                        <use xlink:href="#path-1"></use>
                    </mask>
                    <g id="path-1"></g>
                    <path d="M16.2973981,35.8010345 C15.3054923,36.2468834 14.1892994,36.3585394 13.1248928,36.1173934 L4.12205245,27.3539433 C-1.01115998,22.6729179 -1.01115998,15.7432636 2.25774745,10.8133383 L13.1248928,0.174221415 C14.2283383,-0.309621521 14.5207314,0.342480898 14.7693054,0.583626976 L24.3457781,9.904582 C29.4686333,14.8903353 29.4686333,22.9822983 24.3457781,27.9680516 L16.2973981,35.8010345 Z" id="Fill-1" fill="#DF6DAD" fill-rule="nonzero" mask="url(#mask-2)"></path>
                </g>
                <path d="M46.0997421,17.524387 L46.0997421,56.2094958 L45.9130316,56.3963465 L45.8372536,56.4524017 L27.0388568,75.205987 L27.0388568,113.331322 L8.12484006,94.4843114 C-2.70828002,83.6882318 -2.70828002,66.1842108 8.12484006,55.3873525 L26.4935682,37.0635239 L27.0372944,36.5403419 L46.0989609,17.524387 L46.0997421,17.524387 Z M83.348026,17.114094 L121.752597,55.3873525 C132.588061,66.1842108 132.588061,83.6874532 121.752597,94.4843114 L102.29876,113.872411 L102.29876,75.3757098 L102.336258,75.3383396 L102.29876,75.3001909 L102.29876,75.2822844 L82.8800778,55.9486833 L82.8800778,17.5625357 L83.348026,17.114094 Z M45.1177101,94.4843114 L64.6301382,113.909781 L83.5613417,95.0448636 L83.6183704,94.9888084 L83.6371196,94.9888084 L83.880859,95.2301573 L102.942526,114.227427 L68.3229455,148.728636 C67.926869,149.124137 67.463608,149.447233 66.9558178,149.682354 L74.8453165,141.817495 C79.8693156,136.810674 79.8693156,128.68656 74.8453165,123.679739 L65.4558833,114.321631 C65.2551109,114.123102 64.9918411,113.999313 64.7106034,113.973621 L64.5754531,113.966615 C64.2778098,113.984521 63.9965721,114.110645 63.7864251,114.321631 L55.0141524,123.06391 C54.3555874,123.720223 53.771238,124.446605 53.2712598,125.229821 C50.0659312,130.179808 50.647937,136.868286 55.0141524,141.200888 L63.8426726,150 C62.9684921,149.803807 62.1693083,149.362372 61.5380859,148.728636 L45.623938,132.851774 L45.0989609,132.347277 L26.1122911,113.423969 L45.1177101,94.4843114 Z" id="Fill-4" fill="#654AB3" fill-rule="nonzero"></path>
                <g id="Fill-6-Clipped" transform="translate(45.308725, 0.000000)">
                    <mask id="mask-4" fill="white">
                        <use xlink:href="#path-3"></use>
                    </mask>
                    <g id="path-3"></g>
                    <path d="M39.261745,18.4867916 L38.7915257,18.9381971 L19.481186,38.2483221 L1.0658141e-14,18.7877286 L16.379306,2.40938835 C18.2578321,0.530099392 21.3056369,0.530099392 23.1849468,2.40938835 L39.261745,18.4867916 Z" id="Fill-6" fill="#A2F9CE" fill-rule="nonzero" mask="url(#mask-4)"></path>
                </g>
                <path d="M64.8458193,36.7356288 L45.3087248,56.1890857 L45.3087248,17.5241728 L45.42204,17.4121209 L64.8458193,36.7348506 L64.8458193,36.7356288 Z M84.5704698,18.114094 L84.5704698,57.3758389 L64.8458193,37.7356288 L84.5704698,18.114094 Z" id="Fill-9" fill="#86EBC7" fill-rule="nonzero"></path>
                <polygon id="Fill-11" fill="#71DAC3" fill-rule="nonzero" points="83.5637584 56.6239208 63.6784102 76.5100671 44.4910976 57.3424694 44.3020134 57.1344685 44.4910976 56.9453767 64.1881495 37.2483221"></polygon>
                <path d="M45.0578741,94.7935811 L45.0578741,94.8313433 L26.2554769,113.951638 L26.1812081,113.857233 L26.1812081,75.5977614 L45.0578741,94.7935811 Z M83.2034384,95.3222528 L64.3987204,114.442548 L45.0764413,94.8124622 L63.8989529,75.6724992 L83.2034384,95.3222528 Z M102.691275,75.5033557 L102.691275,114.406359 L102.340045,114.765101 L83.4633794,95.5677076 L83.2204584,95.3222528 L83.4626058,95.0579169 L102.691275,75.5033557 Z" id="Fill-13" fill="#63ADC5" fill-rule="nonzero"></path>
                <path d="M44.8725799,56.8824724 L45.0574822,57.0888786 L63.8981684,76.1095236 L45.0768234,95.1325142 L45.0574822,95.1121863 L26.1812081,76.0360305 L26.1812081,75.7733317 L44.8725799,56.8832542 L44.8725799,56.8824724 Z M83.4622169,56.4133673 L83.4622169,95.3748851 L83.2200646,95.6375839 L83.2022707,95.6375839 L63.8981684,76.1095236 L83.4250817,56.3758389 L83.4622169,56.4133673 Z M102.691275,75.8476066 L102.691275,75.9414276 L83.4622169,95.3748851 L83.4622169,56.4329134 L102.691275,75.8476066 Z" id="Fill-15" fill="#67CAC3" fill-rule="nonzero"></path>
            </g>
            <g id="文字" transform="translate(149.000000, 26.000000)" fill="#FFFFFF" fill-rule="nonzero">
                <g id="nameDefaultGroup">
                    <path d="M49.6979727,32.4667864 L49.6979727,30.8078995 L31.2387257,30.8078995 C33.5264102,32.6247756 35.4196663,34.7576302 36.918494,37.2064632 L36.918494,37.2064632 C40.0739208,36.5745063 43.1899048,35.9030521 46.266446,35.1921005 C49.4218728,34.4021544 52.3406427,33.572711 55.0227555,32.7037702 L55.0227555,32.7037702 L57.7443111,40.524237 C56.6399117,40.9192101 55.4960695,41.2351885 54.3127844,41.4721724 C53.2083851,41.7881508 52.0251,42.1041293 50.7629293,42.4201077 L50.7629293,42.4201077 C50.9995863,46.05386 51.7490001,48.8186715 53.0111709,50.7145422 C54.2733416,52.6104129 56.087712,53.5583483 58.4542822,53.5583483 L58.4542822,53.5583483 L61.5308233,53.5583483 L61.5308233,62.0897666 L59.1642532,62.0897666 C54.1155703,62.0897666 50.2107296,60.5493716 47.4497311,57.4685817 C44.6098469,54.3877917 42.9532478,50.0035907 42.4799338,44.3159785 L42.4799338,44.3159785 L39.7583782,45.02693 C40.1528065,47.2387792 40.3500207,49.6481149 40.3500207,52.2549372 L40.3500207,52.2549372 C40.3500207,55.7307002 39.2061785,58.6140036 36.918494,60.9048474 C34.7096952,63.1956912 31.3570542,64.5780969 26.860571,65.0520646 L26.860571,65.0520646 L22.4824162,57.9425494 C25.401186,57.5475763 27.570542,56.8366248 28.9904841,55.8096948 C30.4893118,54.8617594 31.2387257,53.7558348 31.2387257,52.491921 L31.2387257,52.491921 L31.2387257,51.7809695 C29.2665839,53.4398564 27.097228,54.8617594 24.7306578,56.0466786 C22.3640877,57.3105925 19.8791891,58.3770197 17.2759619,59.2459605 C14.7516205,60.0359066 12.1878362,60.6678636 9.58460902,61.1418312 C7.06026755,61.6157989 4.65425459,61.9317774 2.36657013,62.0897666 L2.36657013,62.0897666 L0,62.0897666 L0,54.1508079 L2.36657013,54.1508079 C4.25982623,54.1508079 6.50806785,53.8348294 9.11129499,53.2028725 C11.7145221,52.6499102 14.3177493,51.8599641 16.9209764,50.8330341 C19.6030892,49.7271095 22.0879879,48.4236984 24.3756723,46.9228007 C26.7422424,45.4219031 28.5566129,43.7630162 29.8187836,41.94614 L29.8187836,41.94614 C29.7398979,41.7881508 29.6610123,41.6301616 29.5821266,41.4721724 C29.5032409,41.2351885 29.4243553,41.037702 29.3454696,40.8797127 L29.3454696,40.8797127 C28.0044132,42.5385996 26.4266998,44 24.6123293,45.2639138 C22.7190732,46.5278276 20.6680458,47.5942549 18.459247,48.4631957 C16.2504482,49.3321364 13.9233209,50.0035907 11.4778651,50.4775583 C9.03240932,50.951526 6.50806785,51.1885099 3.90484071,51.1885099 L3.90484071,51.1885099 L0.946628051,51.1885099 L0.946628051,43.9605027 L3.90484071,43.9605027 C5.5614398,43.9605027 7.21803889,43.8025135 8.87463798,43.486535 C10.6101227,43.2495512 12.2667218,42.8545781 13.8444353,42.3016158 C15.5010343,41.7486535 17.0393049,41.0771993 18.459247,40.2872531 C19.8791891,39.4183124 21.101917,38.4308797 22.1274307,37.3249551 L22.1274307,37.3249551 C19.4453179,38.6678636 16.5265481,39.6947935 13.3711212,40.4057451 C10.2945801,41.037702 7.21803889,41.3536804 4.14149772,41.3536804 L4.14149772,41.3536804 L1.65659909,41.3536804 L1.65659909,34.1256732 L4.14149772,34.1256732 C6.35029651,34.1256732 8.63798097,33.8491921 11.0045511,33.2962298 C13.3711212,32.7432675 15.6193628,31.9138241 17.749276,30.8078995 L17.749276,30.8078995 L12.7794787,30.8078995 L12.7794787,32.2298025 L4.49648324,32.2298025 L4.49648324,17.6552962 L3.90484071,17.6552962 L1.30161357,17.6552962 L1.30161357,10.0718133 L3.19486967,10.0718133 C3.90484071,10.0718133 4.49648324,9.79533214 4.96979727,9.24236984 C5.52199697,8.76840215 5.79809681,8.09694794 5.79809681,7.22800718 L5.79809681,7.22800718 L5.79809681,0.947935368 L14.1994208,0.947935368 L14.1994208,4.14721724 L43.8998759,4.14721724 C45.3987036,4.14721724 46.5819887,4.42369838 47.4497311,4.97666068 C48.3963591,5.52962298 49.0668873,6.2010772 49.4613157,6.99102334 C49.855744,7.85996409 49.9740725,8.76840215 49.8163012,9.71633752 C49.6585299,10.6642729 49.2641015,11.5332136 48.6330161,12.3231598 L48.6330161,12.3231598 L47.2130741,13.7450628 L50.2896152,13.7450628 C52.735071,13.7450628 54.5888843,14.2980251 55.851055,15.4039497 C57.1921114,16.5888689 57.8626396,18.4057451 57.8626396,20.8545781 L57.8626396,20.8545781 L57.8626396,32.4667864 L49.6979727,32.4667864 M13.8444353,10.6642729 C13.6866639,11.8491921 13.3316784,12.8761221 12.7794787,13.7450628 L12.7794787,13.7450628 L36.44518,13.7450628 L39.1667356,10.6642729 L13.8444353,10.6642729 M34.9069094,20.2621185 C34.749138,21.5260323 34.4730382,22.8294434 34.0786098,24.1723519 L34.0786098,24.1723519 L49.6979727,24.1723519 L49.6979727,20.2621185 L34.9069094,20.2621185 M24.7306578,24.1723519 C25.3617432,22.9874327 25.7956144,21.6840215 26.0322714,20.2621185 L26.0322714,20.2621185 L12.7794787,20.2621185 L12.7794787,24.1723519 L24.7306578,24.1723519 M128.031444,66 C125.664874,64.8150808 123.140532,63.551167 120.45842,62.2082585 C117.776307,60.8653501 115.054751,59.5224417 112.293753,58.1795332 C109.532754,56.8366248 106.811198,55.572711 104.129086,54.3877917 C101.446973,53.1238779 98.8831885,51.9389587 96.4377327,50.8330341 L96.4377327,50.8330341 L99.8692594,44.0789946 C101.999173,44.9479354 104.3263,45.8958707 106.850641,46.9228007 C109.453868,48.0287253 112.096538,49.1741472 114.778651,50.3590664 L114.778651,50.3590664 C116.119708,48.9371634 117.302993,47.5547576 118.328506,46.2118492 C119.35402,44.8689408 120.340091,43.4470377 121.286719,41.94614 L121.286719,41.94614 L104.957385,41.94614 C103.695214,41.94614 102.630258,41.7486535 101.762516,41.3536804 C100.815887,40.9587074 100.066474,40.4452424 99.5142739,39.8132855 C98.9620742,39.1023339 98.6070887,38.3123878 98.4493173,37.443447 C98.291546,36.5745063 98.3309888,35.7055655 98.5676458,34.8366248 L98.5676458,34.8366248 L99.7509309,29.7414722 L91.2312784,29.7414722 L91.2312784,21.6840215 L101.880844,21.6840215 L103.182458,16.5888689 L94.1894911,16.5888689 L94.1894911,8.53141831 L105.312371,8.53141831 L107.442284,0 L116.790236,1.06642729 L115.015308,8.53141831 L134.539512,8.53141831 L134.539512,16.5888689 L113.122052,16.5888689 L111.820439,21.6840215 L137.261067,21.6840215 L137.261067,29.7414722 L109.808854,29.7414722 L108.862226,34.0071813 L127.794787,34.0071813 C128.978072,34.0861759 129.964143,34.3626571 130.753,34.8366248 C131.541856,35.3105925 132.133499,35.9030521 132.527927,36.6140036 C132.922356,37.4039497 133.040684,38.3518851 132.882913,39.4578097 C132.725141,40.5637343 132.251827,41.7881508 131.462971,43.1310592 L131.462971,43.1310592 C130.595228,44.6319569 129.3725,46.2908438 127.794787,48.1077199 C126.295959,50.0035907 124.678803,51.9389587 122.943318,53.9138241 L122.943318,53.9138241 L132.054613,58.1795332 L128.031444,66 M80.5817129,1.30341113 L89.4563508,1.30341113 L89.4563508,63.1561939 L80.8183699,63.1561939 L80.8183699,32.5852783 C79.4773135,33.059246 78.0179286,33.2962298 76.4402151,33.2962298 L76.4402151,33.2962298 L73.2453455,33.2962298 L73.2453455,25.0017953 L75.2569301,25.0017953 C75.8091298,25.0017953 76.4007723,24.8833034 77.0318577,24.6463196 C77.662943,24.3303411 78.2545856,23.8958707 78.8067853,23.3429084 C79.2800993,22.7109515 79.7139705,21.9605027 80.1083988,21.0915619 C80.4239415,20.1436266 80.5817129,18.9982047 80.5817129,17.6552962 L80.5817129,17.6552962 L80.5817129,1.30341113 M170.629706,11.8491921 L170.629706,15.7594255 L181.752586,15.7594255 L181.752586,22.6319569 L172.049648,22.6319569 C173.785133,23.5798923 175.481175,24.4883303 177.137774,25.3572711 C178.873259,26.2262118 180.372087,27.016158 181.634257,27.7271095 L181.634257,27.7271095 L177.611088,34.481149 L195.360364,34.481149 C197.884706,34.481149 199.856847,35.0736086 201.276789,36.2585278 C202.617846,37.443447 203.288374,39.2998205 203.288374,41.8276481 L203.288374,41.8276481 L203.288374,63.3931777 L194.058751,63.3931777 L194.058751,61.497307 L164.713281,61.497307 L164.713281,63.3931777 L155.483657,63.3931777 L155.483657,35.1921005 L153.945387,35.1921005 L148.738933,35.1921005 L148.738933,28.0825853 L152.998759,28.0825853 C155.365329,28.0825853 157.376914,27.5691203 159.033513,26.5421903 C160.690112,25.5942549 161.794511,24.2908438 162.346711,22.6319569 L162.346711,22.6319569 L148.857261,22.6319569 L148.857261,15.7594255 L162.583368,15.7594255 L162.583368,11.8491921 L160.453455,11.8491921 C159.112398,13.3500898 156.824714,14.1005386 153.590401,14.1005386 L153.590401,14.1005386 L149.803889,14.1005386 L149.803889,6.99102334 L152.998759,6.99102334 C153.70873,6.99102334 154.182044,6.7935368 154.418701,6.39856373 C154.734244,5.92459605 154.892015,5.13464991 154.892015,4.02872531 L154.892015,4.02872531 L154.892015,1.30341113 L162.346711,1.30341113 L162.346711,4.73967684 L162.346711,4.97666068 L179.977658,4.97666068 L179.977658,11.8491921 L170.629706,11.8491921 M200.566818,31.4003591 L190.627224,31.4003591 L190.627224,32.8222621 L182.462557,32.8222621 L182.462557,2.48833034 L190.627224,2.48833034 L190.627224,4.38420108 L203.051717,4.38420108 C204.787202,4.38420108 206.167701,4.89766607 207.193215,5.92459605 C208.139843,6.95152603 208.613157,8.29443447 208.613157,9.95332136 L208.613157,9.95332136 L208.613157,32.8222621 L200.566818,32.8222621 L200.566818,31.4003591 M190.627224,11.967684 L190.627224,23.8168761 L200.566818,23.8168761 L200.566818,11.967684 L190.627224,11.967684 M164.713281,41.8276481 L164.713281,44.5529623 L194.058751,44.5529623 L194.058751,41.8276481 L164.713281,41.8276481 M164.713281,54.2692998 L194.058751,54.2692998 L194.058751,51.5439856 L164.713281,51.5439856 L164.713281,54.2692998 M167.908151,29.1490126 C166.014894,31.7558348 163.372225,33.5332136 159.980141,34.481149 L159.980141,34.481149 L177.019446,34.481149 L167.908151,29.1490126 M236.183699,50.3590664 C235.631499,51.3859964 235.079299,52.4524237 234.5271,53.5583483 C233.896014,54.7432675 233.225486,55.8491921 232.515515,56.8761221 C231.88443,57.9820467 231.213902,59.048474 230.50393,60.0754039 C229.793959,61.0233393 229.083988,61.9317774 228.374017,62.8007181 L228.374017,62.8007181 L221.510964,58.2980251 C222.930906,56.6391382 224.193077,54.8617594 225.297476,52.9658887 C226.480761,50.9910233 227.545718,49.0951526 228.492346,47.2782765 L228.492346,47.2782765 L228.019032,47.2782765 L228.019032,41.5906643 L272.155565,41.5906643 L272.155565,40.0502693 L230.385602,40.0502693 L230.385602,34.8366248 L272.155565,34.8366248 L272.155565,33.2962298 L229.083988,33.2962298 L229.083988,27.6086176 L275.232106,27.6086176 C276.730934,27.6876122 277.953662,28.2405745 278.90029,29.2675045 C279.925803,30.3734291 280.43856,31.7163375 280.43856,33.2962298 L280.43856,33.2962298 L280.43856,47.7522442 L276.652048,47.7522442 C278.150876,49.1741472 279.689146,50.7145422 281.26686,52.3734291 C282.844573,54.032316 284.422287,55.6912029 286,57.3500898 L286,57.3500898 L279.610261,62.8007181 C278.979175,62.0897666 278.229761,61.2603232 277.362019,60.3123878 C276.573162,59.3644524 275.744863,58.4560144 274.87712,57.5870736 C274.009378,56.6391382 273.141636,55.6912029 272.273893,54.7432675 C271.406151,53.8743268 270.577851,53.0448833 269.788995,52.2549372 L269.788995,52.2549372 L275.468763,47.7522442 L272.155565,47.7522442 L272.155565,47.2782765 L257.601158,47.2782765 L263.280927,52.2549372 L258.429458,57.1131059 L271.208937,57.1131059 L271.208937,63.6301616 L246.35995,63.6301616 C244.703351,63.6301616 243.362295,63.5116697 242.336781,63.2746858 C241.232382,63.037702 240.364639,62.6032316 239.733554,61.9712747 C239.102469,61.4183124 238.668597,60.6283662 238.43194,59.6014363 C238.116398,58.4955117 237.958626,57.1921005 237.958626,55.6912029 L237.958626,55.6912029 L237.958626,48.2262118 L246.596607,48.2262118 L246.596607,54.5062837 C246.596607,55.454219 246.833264,56.1256732 247.306578,56.5206463 C247.701007,56.9156194 248.450421,57.1131059 249.55482,57.1131059 L249.55482,57.1131059 L257.956144,57.1131059 C257.403944,56.6391382 256.772859,56.0466786 256.062888,55.3357271 C255.352917,54.7037702 254.603503,53.9928187 253.814646,53.2028725 C253.02579,52.491921 252.276376,51.8204668 251.566405,51.1885099 C250.856434,50.556553 250.264791,50.043088 249.791477,49.6481149 L249.791477,49.6481149 L252.158047,47.2782765 L228.96566,47.2782765 L236.183699,50.3590664 M264.58254,25.5942549 L255.11626,25.5942549 L255.11626,19.9066427 L264.58254,19.9066427 L264.58254,17.8922801 L256.062888,17.8922801 L256.062888,12.5601436 L264.58254,12.5601436 L264.58254,10.545781 L255.471245,10.545781 L255.471245,4.73967684 L264.58254,4.73967684 L264.58254,1.30341113 L272.51055,1.30341113 L272.51055,4.73967684 L283.278444,4.73967684 L283.278444,10.545781 L272.51055,10.545781 L272.51055,12.5601436 L282.095159,12.5601436 L282.095159,17.8922801 L272.51055,17.8922801 L272.51055,19.9066427 L284.698386,19.9066427 L284.698386,25.5942549 L272.51055,25.5942549 L272.51055,27.016158 L264.58254,27.016158 L264.58254,25.5942549 M236.538684,25.5942549 L223.877534,25.5942549 L223.877534,19.9066427 L236.538684,19.9066427 L236.538684,17.8922801 L226.835747,17.8922801 L226.835747,12.5601436 L236.538684,12.5601436 L236.538684,10.545781 L225.652462,10.545781 L225.652462,4.73967684 L236.538684,4.73967684 L236.538684,1.30341113 L244.466694,1.30341113 L244.466694,4.73967684 L253.459661,4.73967684 L253.459661,10.545781 L244.466694,10.545781 L244.466694,12.5601436 L252.868018,12.5601436 L252.868018,17.8922801 L244.466694,17.8922801 L244.466694,19.9066427 L253.459661,19.9066427 L253.459661,25.5942549 L244.466694,25.5942549 L244.466694,27.016158 L236.538684,27.016158 L236.538684,25.5942549 Z" id="Shape"></path>
                </g>
            </g>
            <text id="独立-AIGC-应用-加速数字化转型" fill="#FFFFFF" fill-rule="nonzero" font-family="Alibaba-PuHuiTi-R, Alibaba PuHuiTi" font-size="20" font-weight="normal">
                <tspan x="149" y="129">独立 AIGC 应用 加速数字化转型</tspan>
            </text>
        </g>
    </g>
</svg>