<svg width="130px" height="150px" viewBox="0 0 130 150" version="1.1" xmlns="http://www.w3.org/2000/svg" xmlns:xlink="http://www.w3.org/1999/xlink">
    <title>Logo</title>
    <defs>
        <polygon id="path-1" points="0 0 28.1879195 0 28.1879195 36.2416107 0 36.2416107"></polygon>
        <polygon id="path-3" points="0 0 39.261745 0 39.261745 37.2483221 0 37.2483221"></polygon>
    </defs>
    <g id="Logo_End-" stroke="none" stroke-width="1" fill="none" fill-rule="evenodd">
        <g id="Logo">
            <g id="Group-3" transform="translate(50.342282, 113.758389)">
                <mask id="mask-2" fill="white">
                    <use xlink:href="#path-1"></use>
                </mask>
                <g id="Clip-2"></g>
                <path d="M16.2973981,35.8010345 C15.3054923,36.2468834 14.1892994,36.3585394 13.1248928,36.1173934 L4.12205245,27.3539433 C-1.01115998,22.6729179 -1.01115998,15.7432636 2.25774745,10.8133383 L13.1248928,0.174221415 C14.2283383,-0.309621521 14.5207314,0.342480898 14.7693054,0.583626976 L24.3457781,9.904582 C29.4686333,14.8903353 29.4686333,22.9822983 24.3457781,27.9680516 L16.2973981,35.8010345 Z" id="Fill-1" fill="#DF6DAD" mask="url(#mask-2)"></path>
            </g>
            <path d="M46.0997421,17.524387 L46.0997421,56.2094958 L45.9130316,56.3963465 L45.8372536,56.4524017 L27.0388568,75.205987 L27.0388568,113.331322 L8.12484006,94.4843114 C-2.70828002,83.6882318 -2.70828002,66.1842108 8.12484006,55.3873525 L26.4935682,37.0635239 L27.0372944,36.5403419 L46.0989609,17.524387 L46.0997421,17.524387 Z M83.348026,17.114094 L121.752597,55.3873525 C132.588061,66.1842108 132.588061,83.6874532 121.752597,94.4843114 L102.29876,113.872411 L102.29876,75.3757098 L102.336258,75.3383396 L102.29876,75.3001909 L102.29876,75.2822844 L82.8800778,55.9486833 L82.8800778,17.5625357 L83.348026,17.114094 Z M45.1177101,94.4843114 L64.6301382,113.909781 L83.5613417,95.0448636 L83.6183704,94.9888084 L83.6371196,94.9888084 L83.880859,95.2301573 L102.942526,114.227427 L68.3229455,148.728636 C67.926869,149.124137 67.463608,149.447233 66.9558178,149.682354 L74.8453165,141.817495 C79.8693156,136.810674 79.8693156,128.68656 74.8453165,123.679739 L65.4558833,114.321631 C65.2551109,114.123102 64.9918411,113.999313 64.7106034,113.973621 L64.5754531,113.966615 C64.2778098,113.984521 63.9965721,114.110645 63.7864251,114.321631 L55.0141524,123.06391 C54.3555874,123.720223 53.771238,124.446605 53.2712598,125.229821 C50.0659312,130.179808 50.647937,136.868286 55.0141524,141.200888 L63.8426726,150 C62.9684921,149.803807 62.1693083,149.362372 61.5380859,148.728636 L45.623938,132.851774 L45.0989609,132.347277 L26.1122911,113.423969 L45.1177101,94.4843114 Z" id="Fill-4" fill="#654AB3"></path>
            <g id="Group-8" transform="translate(45.308725, 0.000000)">
                <mask id="mask-4" fill="white">
                    <use xlink:href="#path-3"></use>
                </mask>
                <g id="Clip-7"></g>
                <path d="M39.261745,18.4867916 L38.7915257,18.9381971 L19.481186,38.2483221 L1.0658141e-14,18.7877286 L16.379306,2.40938835 C18.2578321,0.530099392 21.3056369,0.530099392 23.1849468,2.40938835 L39.261745,18.4867916 Z" id="Fill-6" fill="#A2F9CE" mask="url(#mask-4)"></path>
            </g>
            <path d="M64.8458193,36.7356288 L45.3087248,56.1890857 L45.3087248,17.5241728 L45.42204,17.4121209 L64.8458193,36.7348506 L64.8458193,36.7356288 Z M84.5704698,18.114094 L84.5704698,57.3758389 L64.8458193,37.7356288 L84.5704698,18.114094 Z" id="Fill-9" fill="#86EBC7"></path>
            <polygon id="Fill-11" fill="#71DAC3" points="83.5637584 56.6239208 63.6784102 76.5100671 44.4910976 57.3424694 44.3020134 57.1344685 44.4910976 56.9453767 64.1881495 37.2483221"></polygon>
            <path d="M45.0578741,94.7935811 L45.0578741,94.8313433 L26.2554769,113.951638 L26.1812081,113.857233 L26.1812081,75.5977614 L45.0578741,94.7935811 Z M83.2034384,95.3222528 L64.3987204,114.442548 L45.0764413,94.8124622 L63.8989529,75.6724992 L83.2034384,95.3222528 Z M102.691275,75.5033557 L102.691275,114.406359 L102.340045,114.765101 L83.4633794,95.5677076 L83.2204584,95.3222528 L83.4626058,95.0579169 L102.691275,75.5033557 Z" id="Fill-13" fill="#63ADC5"></path>
            <path d="M44.8725799,56.8824724 L45.0574822,57.0888786 L63.8981684,76.1095236 L45.0768234,95.1325142 L45.0574822,95.1121863 L26.1812081,76.0360305 L26.1812081,75.7733317 L44.8725799,56.8832542 L44.8725799,56.8824724 Z M83.4622169,56.4133673 L83.4622169,95.3748851 L83.2200646,95.6375839 L83.2022707,95.6375839 L63.8981684,76.1095236 L83.4250817,56.3758389 L83.4622169,56.4133673 Z M102.691275,75.8476066 L102.691275,75.9414276 L83.4622169,95.3748851 L83.4622169,56.4329134 L102.691275,75.8476066 Z" id="Fill-15" fill="#67CAC3"></path>
        </g>
    </g>
</svg>